<svg width="70" height="70" viewBox="0 0 70 70" fill="none" xmlns="http://www.w3.org/2000/svg">
<g clip-path="url(#clip0_1423_291)">
<rect width="70" height="70" fill="white"/>
<path d="M17.5013 21.4967H28.8536L29.0036 21.6968L28.8035 22.4969H17.5013V38H16.5011V6.14367H31.354L31.5041 6.34371L31.304 7.14386H17.5013V21.4967ZM45.8136 24.6473C48.4141 28.9149 51.4313 33.2824 54.8654 37.75V37.95C54.6987 38.1167 54.4986 38.25 54.2652 38.3501L53.9652 38.25C50.3978 33.5825 47.3305 29.1149 44.7634 24.8474H38.062V38H37.0618V6.14367L44.1132 6.04364C47.0138 6.04364 49.2476 6.79379 50.8146 8.29409C52.3815 9.79439 53.165 11.9615 53.165 14.7954C53.165 17.2625 52.5316 19.3463 51.2646 21.0466C49.9977 22.7136 48.1807 23.9139 45.8136 24.6473ZM38.062 23.8472H45.1634C47.3972 23.2804 49.1142 22.2135 50.3145 20.6466C51.548 19.0796 52.1648 17.1292 52.1648 14.7954C52.1648 12.3282 51.498 10.4279 50.1644 9.09425C48.8308 7.76065 46.9305 7.09385 44.4633 7.09385H38.062V23.8472Z" fill="#3F4D33"/>
<path d="M33.3219 57.8265L33.3982 65H30.193L17.5249 45.4254H17.3341L17.2959 56.9489L17.3341 65H14.5868L14.7012 57.7502L14.6249 40.5413H17.792L30.422 60.1159H30.6891L30.6509 40.6939L33.5127 40.465L33.3219 57.8265ZM49.7682 40.3505C52.3374 40.3505 54.7286 40.9229 56.9417 42.0676L56.3312 44.9675L55.9496 45.0438C54.7286 44.2807 53.5966 43.7338 52.5537 43.4031C51.5361 43.0724 50.455 42.907 49.3103 42.907C43.7903 42.907 41.0302 46.3157 41.0302 53.1331C41.0302 56.4147 41.6662 58.8313 42.9381 60.383C44.2354 61.9093 46.2323 62.6724 48.9287 62.6724C49.641 62.6724 50.3533 62.6088 51.0655 62.4816C51.8032 62.3544 52.7444 62.1128 53.8892 61.7566L53.9655 58.8949L53.9273 55.2318L56.7891 55.0028L56.7128 58.4751L56.8654 63.8171C55.2119 64.3259 53.7493 64.6947 52.4773 64.9237C51.2054 65.1526 49.9717 65.2671 48.7761 65.2671C45.1385 65.2671 42.4039 64.2369 40.5723 62.1764C38.7662 60.1159 37.8632 57.1396 37.8632 53.2476C37.8632 49.0503 38.8934 45.8579 40.9539 43.6702C43.0144 41.4571 45.9525 40.3505 49.7682 40.3505Z" fill="#3F4D33"/>
</g>
<defs>
<clipPath id="clip0_1423_291">
<rect width="70" height="70" fill="white"/>
</clipPath>
</defs>
</svg>
