<svg width="28" height="28" viewBox="0 0 28 28" fill="none" xmlns="http://www.w3.org/2000/svg">
<path d="M9.40689 5.25C8.80358 5.25 8.20618 5.36257 7.64879 5.58127C7.0914 5.79998 6.58495 6.12055 6.15835 6.52466C5.73174 6.92878 5.39334 7.40854 5.16246 7.93655C4.93159 8.46455 4.81276 9.03046 4.81276 9.60197C4.81276 10.1735 4.93159 10.7394 5.16246 11.2674C5.39334 11.7954 5.73174 12.2752 6.15835 12.6793C6.58495 13.0834 7.0914 13.404 7.64879 13.6227C8.20618 13.8414 8.80358 13.9539 9.40689 13.9539C10.6253 13.9539 11.7939 13.4954 12.6554 12.6793C13.517 11.8631 14.001 10.7562 14.001 9.60197C14.001 8.44776 13.517 7.34082 12.6554 6.52466C11.7939 5.70851 10.6253 5.25 9.40689 5.25ZM6.34413 9.60197C6.34413 9.22097 6.42335 8.84369 6.57727 8.49169C6.73119 8.13968 6.95679 7.81985 7.24119 7.55043C7.5256 7.28102 7.86323 7.06731 8.23482 6.92151C8.60641 6.7757 9.00468 6.70066 9.40689 6.70066C9.8091 6.70066 10.2074 6.7757 10.579 6.92151C10.9505 7.06731 11.2882 7.28102 11.5726 7.55043C11.857 7.81985 12.0826 8.13968 12.2365 8.49169C12.3904 8.84369 12.4696 9.22097 12.4696 9.60197C12.4696 10.3715 12.147 11.1094 11.5726 11.6535C10.9982 12.1976 10.2192 12.5033 9.40689 12.5033C8.5946 12.5033 7.81557 12.1976 7.24119 11.6535C6.66682 11.1094 6.34413 10.3715 6.34413 9.60197ZM20.1265 7.18421C19.1789 7.18421 18.27 7.54083 17.5999 8.17562C16.9298 8.8104 16.5533 9.67136 16.5533 10.5691C16.5533 11.4668 16.9298 12.3278 17.5999 12.9625C18.27 13.5973 19.1789 13.9539 20.1265 13.9539C21.0742 13.9539 21.9831 13.5973 22.6532 12.9625C23.3233 12.3278 23.6997 11.4668 23.6997 10.5691C23.6997 9.67136 23.3233 8.8104 22.6532 8.17562C21.9831 7.54083 21.0742 7.18421 20.1265 7.18421ZM18.0847 10.5691C18.0847 10.0561 18.2998 9.56412 18.6827 9.20139C19.0657 8.83865 19.585 8.63487 20.1265 8.63487C20.6681 8.63487 21.1874 8.83865 21.5703 9.20139C21.9532 9.56412 22.1684 10.0561 22.1684 10.5691C22.1684 11.0821 21.9532 11.574 21.5703 11.9368C21.1874 12.2995 20.6681 12.5033 20.1265 12.5033C19.585 12.5033 19.0657 12.2995 18.6827 11.9368C18.2998 11.574 18.0847 11.0821 18.0847 10.5691ZM1.75 18.0641C1.75 17.487 1.99201 16.9336 2.4228 16.5255C2.85358 16.1174 3.43785 15.8882 4.04707 15.8882H14.7667C15.3759 15.8882 15.9602 16.1174 16.391 16.5255C16.8218 16.9336 17.0638 17.487 17.0638 18.0641V18.5777C17.063 18.656 17.0572 18.7341 17.0464 18.8117C17.0234 19.0112 16.9859 19.209 16.9341 19.4036C16.765 20.0385 16.4641 20.6352 16.049 21.1589C15.0138 22.4674 13.0393 23.625 9.40689 23.625C5.77446 23.625 3.8 22.4674 2.76479 21.1589C2.35003 20.6352 2.04948 20.0385 1.88068 19.4036C1.81386 19.1508 1.77115 18.8928 1.75306 18.6328L1.75 18.5777V18.0641ZM3.28138 18.5429V18.5603L3.29057 18.657C3.30078 18.7479 3.32119 18.8842 3.36611 19.0516C3.48514 19.4989 3.69683 19.9193 3.98887 20.2885C4.67697 21.156 6.14812 22.1743 9.40689 22.1743C12.6657 22.1743 14.1368 21.156 14.8239 20.2885C15.1812 19.8378 15.3588 19.3871 15.4466 19.0516C15.4897 18.8904 15.518 18.726 15.5314 18.5603L15.5324 18.5429V18.0641C15.5324 17.8718 15.4517 17.6873 15.3081 17.5513C15.1645 17.4152 14.9698 17.3388 14.7667 17.3388H4.04707C3.84399 17.3388 3.64924 17.4152 3.50564 17.5513C3.36205 17.6873 3.28138 17.8718 3.28138 18.0641V18.5429ZM17.1659 21.3233C17.955 21.5525 18.929 21.6908 20.1245 21.6908C22.9524 21.6908 24.5328 20.921 25.3914 19.9926C25.7342 19.6248 25.9885 19.1909 26.1367 18.7208C26.1946 18.5308 26.2319 18.3358 26.248 18.1386L26.25 18.0932V18.0641C26.25 17.487 26.008 16.9336 25.5772 16.5255C25.1464 16.1174 24.5622 15.8882 23.9529 15.8882H17.1597C17.562 16.2856 17.856 16.7837 17.9949 17.3388H23.954C24.1553 17.3388 24.3485 17.4139 24.4918 17.5478C24.6351 17.6818 24.717 17.8638 24.7196 18.0545L24.7145 18.099C24.7043 18.1719 24.6883 18.244 24.6666 18.3146C24.5804 18.582 24.4341 18.8284 24.2378 19.0371C23.7569 19.5593 22.6584 20.2401 20.1245 20.2401C19.1638 20.2401 18.4093 20.1425 17.8162 19.9916C17.6598 20.4598 17.4413 20.9072 17.1659 21.3233Z" fill="white"/>
</svg>
