<svg width="28" height="28" viewBox="0 0 28 28" fill="none" xmlns="http://www.w3.org/2000/svg">
<path d="M12.9104 9.33803L13.125 9.3322H21.875C22.8433 9.33212 23.775 9.7025 24.4789 10.3674C25.1829 11.0323 25.6057 11.9413 25.6609 12.908L25.6667 13.1239V14.9439C25.1461 14.4439 24.5569 14.0208 23.9167 13.6874V13.1239C23.9167 12.5824 23.7016 12.0631 23.3187 11.6802C22.9358 11.2973 22.4165 11.0822 21.875 11.0822H13.125C12.6126 11.0822 12.119 11.2749 11.7421 11.622C11.3652 11.9691 11.1325 12.4452 11.0904 12.9559L11.0834 13.1239V21.8739C11.0834 22.3864 11.2762 22.8802 11.6236 23.2572C11.9709 23.6341 12.4473 23.8666 12.9582 23.9085L13.125 23.9155H13.6874C14.0222 24.5572 14.4457 25.1464 14.9427 25.6655H13.125C12.1565 25.6656 11.2247 25.295 10.5208 24.6299C9.81679 23.9648 9.39403 23.0555 9.3392 22.0885L9.33336 21.875V13.125C9.3333 12.1565 9.70384 11.2247 10.369 10.5208C11.0341 9.81679 11.9434 9.39403 12.9104 9.3392M18.179 4.9397L18.2397 5.1462L19.0482 8.16553H17.2364L16.5504 5.59886C16.481 5.33974 16.3613 5.09681 16.1981 4.88396C16.0349 4.67112 15.8313 4.49252 15.599 4.35839C15.3667 4.22426 15.1102 4.13722 14.8443 4.10224C14.5783 4.06726 14.3081 4.08503 14.049 4.15453L5.5977 6.41903C5.10435 6.55133 4.6785 6.86374 4.40421 7.29462C4.12991 7.72551 4.02709 8.24355 4.11603 8.74653L4.15336 8.9192L6.41903 17.3705C6.5253 17.7677 6.74899 18.1235 7.06082 18.3914C7.37264 18.6593 7.75808 18.8268 8.1667 18.872V20.629C7.40807 20.5841 6.68043 20.3123 6.07818 19.8488C5.47592 19.3853 5.02685 18.7515 4.7892 18.0297L4.72853 17.8244L2.46403 9.37186C2.2132 8.43663 2.32967 7.44088 2.78956 6.58878C3.24945 5.73668 4.01791 5.09281 4.93736 4.7892L5.14503 4.72853L13.5964 2.46403C14.5316 2.2132 15.5273 2.32967 16.3794 2.78956C17.2315 3.24945 17.8754 4.01791 18.179 4.93736M26.8334 20.4167C26.8334 18.7149 26.1573 17.0828 24.954 15.8794C23.7506 14.6761 22.1185 14 20.4167 14C18.7149 14 17.0828 14.6761 15.8794 15.8794C14.6761 17.0828 14 18.7149 14 20.4167C14 22.1185 14.6761 23.7506 15.8794 24.954C17.0828 26.1573 18.7149 26.8334 20.4167 26.8334C22.1185 26.8334 23.7506 26.1573 24.954 24.954C26.1573 23.7506 26.8334 22.1185 26.8334 20.4167ZM20.3117 16.3415L20.4167 16.3334L20.5217 16.3427C20.6383 16.364 20.7456 16.4203 20.8293 16.5041C20.9131 16.5878 20.9694 16.6951 20.9907 16.8117L21 16.9167V19.8334L23.9225 19.8345L24.0275 19.8439C24.1441 19.8652 24.2514 19.9214 24.3352 20.0052C24.419 20.089 24.4752 20.1963 24.4965 20.3129L24.5059 20.4179L24.4965 20.5229C24.4752 20.6396 24.4187 20.747 24.3347 20.8308C24.2507 20.9146 24.1431 20.9708 24.0264 20.9919L23.9214 21.0012H21.0012V23.9214L20.9919 24.0264C20.9706 24.1429 20.9143 24.2502 20.8305 24.334C20.7467 24.4178 20.6394 24.4741 20.5229 24.4954L20.4179 24.5047L20.3129 24.4954C20.1963 24.4741 20.089 24.4178 20.0052 24.334C19.9214 24.2502 19.8652 24.1429 19.8439 24.0264L19.8345 23.9214V21H16.9144L16.8094 20.9907C16.6928 20.9694 16.5855 20.9131 16.5017 20.8293C16.4179 20.7456 16.3617 20.6383 16.3404 20.5217L16.331 20.4167L16.3404 20.3117C16.3617 20.1951 16.4179 20.0878 16.5017 20.0041C16.5855 19.9203 16.6928 19.864 16.8094 19.8427L16.9144 19.8334H19.8334V16.9167L19.8427 16.8117C19.8638 16.6949 19.92 16.5874 20.0038 16.5034C20.0876 16.4194 20.195 16.3629 20.3117 16.3415Z" fill="white"/>
</svg>
