<svg width="28" height="28" viewBox="0 0 28 28" fill="none" xmlns="http://www.w3.org/2000/svg">
<path d="M2.33325 4.66667C2.33325 4.35725 2.45617 4.0605 2.67496 3.84171C2.89375 3.62292 3.1905 3.5 3.49992 3.5H24.4999C24.8093 3.5 25.1061 3.62292 25.3249 3.84171C25.5437 4.0605 25.6666 4.35725 25.6666 4.66667V23.3333C25.6666 23.6428 25.5437 23.9395 25.3249 24.1583C25.1061 24.3771 24.8093 24.5 24.4999 24.5H3.49992C3.1905 24.5 2.89375 24.3771 2.67496 24.1583C2.45617 23.9395 2.33325 23.6428 2.33325 23.3333V4.66667ZM4.66659 5.83333V22.1667H23.3333V5.83333H4.66659ZM6.99992 8.16667H12.8333V12.8333H6.99992V8.16667ZM12.8333 15.1667H6.99992V19.8333H12.8333V15.1667ZM15.1666 8.16667H20.9999V12.8333H15.1666V8.16667ZM20.9999 15.1667H15.1666V19.8333H20.9999V15.1667Z" fill="#3F4D33"/>
</svg>
