<svg width="27" height="27" viewBox="0 0 27 27" fill="none" xmlns="http://www.w3.org/2000/svg">
<path d="M12.375 7.875H19.125M7.875 7.875H9M7.875 13.5H9M7.875 19.125H9M12.375 13.5H19.125M12.375 19.125H19.125M2.8125 13.5C2.8125 8.46225 2.8125 5.94225 4.37738 4.37738C5.94225 2.8125 8.46112 2.8125 13.5 2.8125C18.5378 2.8125 21.0577 2.8125 22.6226 4.37738C24.1875 5.94225 24.1875 8.46112 24.1875 13.5C24.1875 18.5378 24.1875 21.0577 22.6226 22.6226C21.0577 24.1875 18.5389 24.1875 13.5 24.1875C8.46225 24.1875 5.94225 24.1875 4.37738 22.6226C2.8125 21.0577 2.8125 18.5389 2.8125 13.5Z" stroke="white" stroke-width="1.8125" stroke-linecap="round" stroke-linejoin="round"/>
</svg>
